<svg xmlns="http://www.w3.org/2000/svg"
	xmlns:xlink="http://www.w3.org/1999/xlink"
	version="1.1" id="Layer_1" x="0px" y="0px"
	viewBox="0 0 100 100" style="fill: rgb(0, 0, 0);"
	xml:space="preserve" width="50" height="50">
<style type="text/css">
	.st0{fill:#EE3E54;}
	.st1{fill:#F1BC19;}
	.st2{fill:#FCE0A2;}
	.st3{fill:#FBCD59;}
	.st4{fill:#FFFFFF;}
	.st5{fill:#4985C1;}
	.st6{fill:#472B29;}
	.st7{fill:#FDFCEE;}
</style>
<g>
	<circle class="st0" cx="13" cy="29" r="2"/>
</g>
<g>
	<circle class="st1" cx="77" cy="13" r="1"/>
</g>
<g>
	<circle class="st2" cx="50" cy="50" r="37"/>
</g>
<g>
	<circle class="st1" cx="83" cy="15" r="4"/>
</g>
<g>
	<circle class="st0" cx="87" cy="24" r="2"/>
</g>
<g>
	<circle class="st3" cx="81" cy="76" r="2"/>
</g>
<g>
	<circle class="st3" cx="15" cy="63" r="4"/>
</g>
<g>
	<circle class="st0" cx="25" cy="87" r="2"/>
</g>
<g>
	<circle class="st4" cx="18.5" cy="53.5" r="2.5"/>
</g>
<g>
	<circle class="st1" cx="21" cy="67" r="1"/>
</g>
<g>
	<circle class="st4" cx="80" cy="34" r="1"/>
</g>
<g>
	<path class="st5" d="M35,72.3c-4,0-7.3-3.3-7.3-7.3V35c0-4,3.3-7.3,7.3-7.3h30c4,0,7.3,3.3,7.3,7.3v30c0,4-3.3,7.3-7.3,7.3H35z"/>
</g>
<g>
	<path class="st6" d="M65,28.4c3.6,0,6.6,3,6.6,6.6v30c0,3.6-3,6.6-6.6,6.6H35c-3.6,0-6.6-3-6.6-6.6V35c0-3.6,3-6.6,6.6-6.6H65    M65,27H35c-4.4,0-8,3.6-8,8v30c0,4.4,3.6,8,8,8h30c4.4,0,8-3.6,8-8V35C73,30.6,69.4,27,65,27L65,27z"/>
</g>
<g>
	<path class="st7" d="M68.5,47.9v1.8V64c0,2.5-2,4.5-4.5,4.5H36c-2.5,0-4.5-2-4.5-4.5V36c0-2.5,2-4.5,4.5-4.5h25.4H64   c2.5,0,4.5,2,4.5,4.5v3.4v2v1v1.1v2.9V47.9"/>
</g>
<g>
	<path class="st6" d="M68.5,47.4c-0.3,0-0.5-0.2-0.5-0.5V43c0-0.3,0.2-0.5,0.5-0.5S69,42.7,69,43v3.9C69,47.2,68.8,47.4,68.5,47.4z"/>
</g>
<g>
	<path class="st6" d="M68.5,40.5c-0.3,0-0.5-0.2-0.5-0.5v-2c0-0.3,0.2-0.5,0.5-0.5S69,37.7,69,38v2C69,40.3,68.8,40.5,68.5,40.5z"/>
</g>
<g>
	<path class="st6" d="M64,69H36c-2.8,0-5-2.2-5-5V36c0-2.8,2.2-5,5-5h25.4c0.3,0,0.5,0.2,0.5,0.5S61.7,32,61.4,32H36   c-2.2,0-4,1.8-4,4v28c0,2.2,1.8,4,4,4h28c2.2,0,4-1.8,4-4V49.6c0-0.3,0.2-0.5,0.5-0.5s0.5,0.2,0.5,0.5V64C69,66.8,66.8,69,64,69z"/>
</g>
<g id="Facebook_3_">
	<path class="st5" d="M46.5,43.4c0,0.6,0,3.1,0,3.1h-2.1v3.6h2.1v11.4h5V50.1h2.9c0,0,0.3-1.7,0.4-3.6c-0.4,0-4.1,0-4.1,0   s0-2.2,0-2.6c0-0.4,0.5-0.9,1-0.9s2.2,0,3.3,0c0-0.6,0-2.5,0-4.3c-1.4,0-2.9,0-3.6,0C46.4,38.6,46.5,42.8,46.5,43.4z"/>
	<path class="st6" d="M51.5,62h-5c-0.3,0-0.5-0.2-0.5-0.5V50.6h-1.6c-0.3,0-0.5-0.2-0.5-0.5v-3.6c0-0.3,0.2-0.5,0.5-0.5H46v-2.6h0.5   l-0.5,0c0-1.6,0.5-2.9,1.4-3.8c0.9-1,2.3-1.4,4.1-1.4h3.6c0.3,0,0.5,0.2,0.5,0.5v4.3c0,0.3-0.2,0.5-0.5,0.5h-3.3   c-0.2,0-0.5,0.3-0.5,0.4V46h3.6c0.1,0,0.3,0.1,0.4,0.2c0.1,0.1,0.1,0.2,0.1,0.4c-0.1,1.9-0.4,3.5-0.4,3.6c0,0.2-0.2,0.4-0.5,0.4H52   v10.9C52,61.8,51.8,62,51.5,62z M47,61h4V50.1c0-0.3,0.2-0.5,0.5-0.5H54c0.1-0.5,0.2-1.5,0.3-2.6h-3.5c-0.3,0-0.5-0.2-0.5-0.5v-2.6   c0-0.7,0.8-1.4,1.5-1.4h2.8v-3.3h-3.1c-1.5,0-2.7,0.4-3.4,1.1C47.4,41,47,42,47,43.3c0,0,0,0,0,0v3.1c0,0.3-0.2,0.5-0.5,0.5h-1.6   v2.6h1.6c0.3,0,0.5,0.2,0.5,0.5V61z"/>
</g>
</svg>
